<svg viewBox="0 0 512 512" fill="currentColor" xmlns="http://www.w3.org/2000/svg">
  <path d="M487.4 315.7l-42.2-24.3c2.7-13.5 4.1-27.5 4.1-41.4s-1.4-27.9-4.1-41.4l42.2-24.3c15.1-8.7 21.1-27.6 13.7-43.1l-45.5-78.8c-7.4-12.8-23.6-17.4-36.4-10.7l-42.2 24.3c-22-18.1-47.1-32.3-74.6-41.4V24c0-14.3-11.7-24-24-24h-91c-14.3 0-24 11.7-24 24v48.6c-27.5 9.1-52.6 23.3-74.6 41.4l-42.2-24.3c-12.8-7.4-29-2.1-36.4 10.7l-45.5 78.8c-7.4 12.8-1.4 31.7 13.7 43.1l42.2 24.3c-2.7 13.5-4.1 27.5-4.1 41.4s1.4 27.9 4.1 41.4l-42.2 24.3c-15.1 8.7-21.1 27.6-13.7 43.1l45.5 78.8c7.4 12.8 23.6 17.4 36.4 10.7l42.2-24.3c22 18.1 47.1 32.3 74.6 41.4V488c0 14.3 11.7 24 24 24h91c14.3 0 24-11.7 24-24v-48.6c27.5-9.1 52.6-23.3 74.6-41.4l42.2 24.3c12.8 7.4 29-2.1 36.4-10.7l45.5-78.8c7.4-12.8 1.4-31.7-13.7-43.1zM256 336c-44.2 0-80-35.8-80-80s35.8-80 80-80 80 35.8 80 80-35.8 80-80 80z"/>
</svg> 